<?xml version="1.0" standalone="no"?>
<!DOCTYPE svg PUBLIC "-//W3C//DTD SVG 20010904//EN"
 "http://www.w3.org/TR/2001/REC-SVG-20010904/DTD/svg10.dtd">
<svg version="1.0" xmlns="http://www.w3.org/2000/svg"
 width="1152.000000pt" height="150.000000pt" viewBox="0 0 1152.000000 150.000000"
 preserveAspectRatio="xMidYMid meet">
<metadata>
Created by potrace 1.16, written by Peter Selinger 2001-2019
</metadata>
<g transform="translate(0.000000,150.000000) scale(0.100000,-0.100000)"
fill="#000000" stroke="none">
<path d="M7326 1319 c-114 -27 -257 -150 -314 -271 -52 -109 -66 -178 -66
-333 -1 -207 40 -335 144 -448 88 -96 181 -148 289 -163 l51 -7 0 46 c0 41 -3
48 -29 61 -16 9 -34 29 -40 47 -15 44 -15 898 0 932 6 13 24 31 40 41 25 15
29 23 29 62 0 43 -1 44 -32 43 -18 -1 -50 -5 -72 -10z"/>
<path d="M7500 1285 c0 -38 4 -47 23 -54 12 -5 31 -19 42 -31 19 -21 20 -38
23 -469 2 -409 1 -449 -15 -481 -10 -19 -30 -41 -45 -48 -24 -11 -28 -19 -28
-58 0 -42 1 -44 29 -44 49 0 155 38 217 78 113 73 192 187 231 332 25 90 24
319 0 409 -38 142 -128 271 -235 339 -57 37 -159 72 -207 72 -35 0 -35 0 -35
-45z"/>
<path d="M9590 1311 c-146 -47 -229 -131 -265 -267 -43 -167 10 -320 147 -417
36 -26 123 -72 193 -104 135 -60 198 -107 210 -156 18 -69 -24 -137 -96 -159
-38 -11 -39 -12 -39 -60 0 -48 0 -48 33 -48 49 0 144 27 200 57 68 38 150 130
178 200 19 46 23 77 24 153 0 83 -4 103 -28 153 -16 36 -49 81 -85 116 -48 47
-82 67 -197 121 -77 35 -157 74 -178 87 -80 50 -100 136 -47 197 17 18 41 37
55 40 22 6 25 11 25 56 l0 50 -37 -1 c-21 0 -63 -8 -93 -18z"/>
<path d="M9800 1282 c0 -48 0 -49 41 -62 82 -27 183 -150 204 -248 12 -57 55
-80 89 -46 13 13 16 45 16 190 0 102 -4 183 -10 195 -15 28 -45 23 -74 -12
-29 -34 -34 -35 -126 -1 -30 11 -74 23 -97 27 l-43 7 0 -50z"/>
<path d="M260 1292 c-28 -22 -22 -67 10 -77 11 -4 27 -16 34 -28 8 -12 78
-257 157 -544 l144 -523 95 0 95 0 53 213 52 212 -80 304 c-44 167 -80 312
-80 322 0 10 16 30 35 45 38 29 44 54 19 78 -13 14 -51 16 -264 16 -225 0
-250 -2 -270 -18z"/>
<path d="M932 1099 l-52 -211 102 -384 102 -384 96 0 96 0 49 199 49 198 -105
396 -104 397 -90 0 -90 0 -53 -211z"/>
<path d="M1345 1297 c-23 -18 -14 -63 15 -72 36 -12 80 -56 80 -81 0 -13 -18
-88 -39 -167 l-40 -143 23 -89 c18 -72 24 -85 29 -65 4 14 30 113 58 220 60
229 83 278 151 320 52 32 62 62 29 80 -30 16 -283 13 -306 -3z"/>
<path d="M2101 1266 c-10 -40 -4 -74 69 -397 44 -194 80 -354 80 -356 0 -2
-44 -3 -99 -3 l-98 0 -10 -50 -10 -50 122 0 121 0 18 -75 c20 -86 17 -104 -24
-127 -35 -20 -41 -61 -11 -78 26 -14 496 -14 522 0 32 18 24 58 -15 77 -19 8
-38 25 -44 37 -5 11 -65 256 -133 543 l-124 523 -176 0 -177 0 -11 -44z"/>
<path d="M2886 1297 c-30 -22 -17 -59 29 -83 l40 -20 0 -479 0 -479 -40 -20
c-27 -14 -41 -29 -43 -45 -7 -48 11 -51 288 -51 215 0 259 2 278 16 12 8 22
24 22 34 0 21 -35 50 -62 50 -9 0 -24 7 -32 16 -14 14 -16 77 -16 545 l0 529
-223 0 c-168 0 -228 -3 -241 -13z"/>
<path d="M3420 1261 c0 -38 4 -51 15 -51 8 0 29 -13 47 -29 l33 -29 3 -174 c3
-163 2 -175 -18 -200 -11 -15 -34 -29 -50 -33 -28 -6 -30 -9 -30 -55 0 -45 2
-48 30 -53 19 -4 37 -18 50 -39 17 -29 20 -51 20 -164 0 -157 14 -215 66 -267
112 -111 339 -80 420 58 44 76 7 133 -57 86 -15 -12 -33 -21 -39 -21 -6 0 -10
43 -10 118 0 102 -3 124 -22 162 -28 56 -100 101 -190 120 l-62 14 50 16 c103
35 156 77 196 154 18 33 22 59 23 131 0 107 -18 149 -91 213 -67 60 -137 83
-271 89 l-113 6 0 -52z"/>
<path d="M4136 1297 c-30 -22 -17 -59 29 -83 l40 -20 0 -479 0 -479 -40 -20
c-27 -14 -41 -29 -43 -45 -7 -47 13 -51 255 -51 l223 0 0 595 0 595 -223 0
c-168 0 -228 -3 -241 -13z"/>
<path d="M4680 1260 c0 -46 2 -50 28 -56 122 -26 184 -82 236 -216 11 -29 21
-38 38 -38 45 0 48 14 48 192 l0 168 -175 0 -175 0 0 -50z"/>
<path d="M5656 1297 c-30 -22 -17 -59 29 -83 l40 -20 0 -479 0 -479 -40 -20
c-46 -24 -59 -61 -29 -83 26 -19 512 -19 538 0 30 22 17 59 -29 83 l-40 20 0
479 0 479 40 20 c46 24 59 61 29 83 -26 19 -512 19 -538 0z"/>
<path d="M6268 1299 c-32 -18 -22 -56 22 -84 l40 -25 0 -210 0 -210 -70 0 -70
0 0 -45 0 -45 70 0 70 0 0 -220 0 -220 -40 -25 c-41 -26 -52 -59 -28 -83 18
-18 507 -17 532 1 29 21 17 59 -27 80 -21 11 -39 28 -42 40 -3 12 -4 229 -3
481 l3 460 40 20 c46 24 59 61 29 83 -22 16 -499 18 -526 2z"/>
<path d="M8106 1297 c-30 -22 -17 -59 29 -83 l40 -20 5 -425 c5 -403 6 -426
26 -469 54 -117 221 -200 400 -200 l64 0 0 55 c0 53 -1 55 -34 69 -65 27 -67
43 -64 535 l3 435 40 20 c44 23 56 54 30 80 -14 14 -49 16 -269 16 -192 0
-256 -3 -270 -13z"/>
<path d="M8838 1299 c-35 -20 -22 -55 33 -88 37 -24 56 -43 70 -76 19 -43 20
-65 17 -398 -3 -340 -4 -353 -25 -393 -29 -55 -82 -99 -143 -121 l-50 -18 0
-53 0 -54 38 7 c64 11 154 67 194 121 71 92 71 96 77 514 7 421 6 416 81 468
47 32 62 69 35 89 -23 16 -300 18 -327 2z"/>
<path d="M10336 1297 c-30 -22 -17 -59 29 -83 l40 -20 0 -479 0 -479 -40 -20
c-27 -14 -41 -29 -43 -45 -7 -47 13 -51 255 -51 l223 0 0 595 0 595 -223 0
c-168 0 -228 -3 -241 -13z"/>
<path d="M10880 1260 c0 -46 2 -50 28 -56 122 -26 184 -82 236 -216 11 -29 21
-38 38 -38 45 0 48 14 48 192 l0 168 -175 0 -175 0 0 -50z"/>
<path d="M2042 1050 c-6 -19 -54 -192 -107 -385 -59 -217 -105 -363 -119 -385
-13 -20 -44 -46 -72 -60 -57 -29 -68 -59 -32 -84 18 -13 50 -16 161 -16 76 0
147 5 158 10 11 6 19 21 19 35 0 19 -10 30 -50 50 -52 26 -70 49 -70 87 1 13
38 154 83 313 l82 290 -20 90 -21 90 -12 -35z"/>
<path d="M4802 958 c-5 -7 -15 -32 -21 -55 -13 -47 -46 -92 -85 -112 -23 -13
-26 -21 -26 -68 0 -39 4 -53 14 -53 24 0 73 -47 86 -82 31 -84 40 -98 63 -98
13 0 28 5 35 12 15 15 17 420 2 449 -12 21 -52 26 -68 7z"/>
<path d="M11002 958 c-5 -7 -15 -32 -21 -55 -13 -47 -46 -92 -85 -112 -23 -13
-26 -21 -26 -68 0 -39 4 -53 14 -53 24 0 73 -47 86 -82 31 -84 40 -98 63 -98
13 0 28 5 35 12 15 15 17 420 2 449 -12 21 -52 26 -68 7z"/>
<path d="M9337 542 c-25 -27 -25 -392 -1 -416 22 -23 47 -20 74 9 30 32 42 31
133 -5 42 -16 89 -30 106 -30 30 0 31 1 31 49 0 47 -2 50 -29 56 -78 17 -171
127 -218 258 -15 39 -31 78 -36 85 -14 18 -41 15 -60 -6z"/>
<path d="M4931 405 c-47 -96 -109 -156 -184 -176 -23 -6 -48 -13 -54 -15 -8
-2 -13 -21 -13 -49 l0 -45 180 0 180 0 0 173 c0 182 -3 197 -46 197 -18 0 -30
-16 -63 -85z"/>
<path d="M11131 405 c-47 -96 -109 -156 -184 -176 -23 -6 -48 -13 -54 -15 -8
-2 -13 -21 -13 -49 l0 -45 180 0 180 0 0 173 c0 182 -3 197 -46 197 -18 0 -30
-16 -63 -85z"/>
</g>
</svg>
