<?xml version="1.0" standalone="no"?>
<!DOCTYPE svg PUBLIC "-//W3C//DTD SVG 20010904//EN"
 "http://www.w3.org/TR/2001/REC-SVG-20010904/DTD/svg10.dtd">
<svg version="1.0" xmlns="http://www.w3.org/2000/svg"
 width="1152.000000pt" height="150.000000pt" viewBox="0 0 1152.000000 150.000000"
 preserveAspectRatio="xMidYMid meet">
<metadata>
Created by potrace 1.16, written by Peter Selinger 2001-2019
</metadata>
<g transform="translate(0.000000,150.000000) scale(0.100000,-0.100000)"
fill="#000000" stroke="none">
<path d="M0 750 l0 -750 5760 0 5760 0 0 750 0 750 -5760 0 -5760 0 0 -750z
m7330 559 c0 -36 -5 -47 -37 -74 l-38 -33 -3 -431 c-3 -473 -1 -501 48 -526
27 -14 30 -21 30 -60 0 -43 -1 -45 -29 -45 -16 0 -57 9 -92 20 -166 51 -292
190 -338 372 -80 314 19 628 238 756 61 35 137 61 184 62 37 0 37 0 37 -41z
m255 -3 c246 -122 359 -440 274 -774 -46 -182 -172 -321 -338 -372 -35 -11
-76 -20 -92 -20 -28 0 -29 2 -29 43 0 36 5 47 30 65 18 14 33 37 40 62 7 27
10 183 8 464 l-3 424 -24 26 c-14 14 -30 26 -38 26 -9 0 -13 15 -13 51 l0 52
57 -6 c35 -4 84 -19 128 -41z m1985 -1 c0 -42 -2 -46 -39 -65 -52 -26 -71 -55
-71 -106 0 -83 30 -107 282 -224 166 -77 244 -166 270 -309 29 -155 -60 -334
-201 -405 -62 -32 -146 -56 -193 -56 l-38 0 0 45 c0 44 1 45 50 66 68 29 90
59 90 120 0 72 -41 109 -205 183 -72 32 -157 78 -191 101 -147 105 -199 284
-133 460 22 59 90 142 145 176 49 30 140 58 192 58 l42 1 0 -45z m217 3 l75
-32 27 32 c32 40 67 43 81 6 6 -14 10 -96 10 -182 0 -172 -8 -202 -55 -202
-25 0 -55 33 -55 61 0 9 -16 48 -36 87 -39 80 -93 132 -161 158 -43 17 -43 17
-43 67 l0 50 41 -7 c22 -4 75 -21 116 -38z m-8939 -6 c14 -21 13 -24 -22 -56
-23 -23 -36 -44 -36 -60 0 -15 36 -159 79 -320 l79 -294 -51 -206 -52 -206
-95 0 -95 0 -143 523 c-141 518 -142 522 -177 550 -40 33 -44 59 -13 82 20 13
58 15 267 13 240 -3 244 -3 259 -26z m459 -365 l103 -392 -48 -190 -48 -190
-96 -3 -95 -3 -12 43 c-6 24 -51 192 -100 375 l-88 331 51 211 51 211 90 0 90
0 102 -393z m367 387 c10 -4 16 -18 16 -35 0 -23 -7 -32 -40 -49 -66 -34 -84
-74 -149 -325 -32 -127 -61 -223 -64 -215 -3 8 -14 46 -25 84 l-18 69 33 141
c43 178 42 201 -14 239 -34 22 -43 34 -43 57 0 16 6 31 13 33 18 8 272 8 291
1z m845 -166 c23 -95 79 -333 125 -528 65 -272 88 -357 102 -365 10 -5 29 -20
42 -33 22 -21 23 -25 9 -45 -14 -22 -20 -22 -253 -25 -132 -1 -249 0 -261 3
-43 10 -38 76 7 90 35 11 36 60 3 178 -4 15 -18 17 -122 17 l-118 0 10 50 10
49 96 3 97 3 -79 346 c-71 313 -77 351 -67 388 l11 41 174 0 173 0 41 -172z
m823 -354 c3 -456 5 -528 18 -535 8 -4 30 -13 48 -19 26 -10 32 -18 32 -41 0
-18 -7 -32 -19 -39 -31 -16 -512 -13 -535 3 -28 21 -17 59 24 79 19 10 38 28
42 40 8 29 10 855 2 895 -4 20 -17 35 -42 48 -24 13 -38 28 -40 44 -7 47 14
51 250 51 l218 0 2 -526z m280 515 c215 -46 320 -254 219 -433 -36 -64 -83
-102 -162 -131 l-64 -23 45 -12 c79 -20 110 -34 144 -62 55 -45 66 -81 66
-211 0 -128 8 -145 46 -103 27 28 53 33 72 14 36 -36 -16 -129 -101 -182 -85
-53 -226 -48 -305 11 -62 46 -75 89 -82 263 -3 94 -10 164 -18 177 -6 12 -28
27 -47 34 -33 12 -35 16 -35 56 0 41 2 44 39 59 22 8 43 26 50 40 7 15 11 84
11 175 0 177 -9 210 -64 230 -35 12 -36 15 -36 61 l0 48 85 0 c46 0 108 -5
137 -11z m938 -574 l0 -585 -218 0 c-236 0 -257 4 -250 51 2 16 15 30 38 41
19 10 38 26 42 35 8 22 10 858 2 900 -4 20 -17 35 -42 48 -24 13 -38 28 -40
44 -7 47 14 51 250 51 l218 0 0 -585z m420 421 c0 -175 -4 -191 -51 -184 -16
2 -33 24 -63 82 -47 91 -91 128 -176 149 l-55 14 -3 52 -3 51 175 0 176 0 0
-164z m1131 154 c33 -18 24 -57 -21 -85 l-40 -25 0 -469 0 -469 38 -19 c40
-19 53 -53 32 -79 -18 -21 -512 -21 -530 0 -19 24 -8 59 25 76 17 8 33 20 37
25 4 6 7 219 5 475 l-2 465 -37 18 c-31 14 -38 23 -38 45 0 15 5 33 12 40 16
16 490 17 519 2z m597 -2 c7 -7 12 -25 12 -40 0 -22 -7 -31 -37 -45 l-38 -18
0 -470 0 -470 38 -18 c30 -14 37 -23 37 -45 0 -15 -5 -33 -12 -40 -16 -16
-490 -17 -519 -2 -38 21 -21 67 35 95 20 10 21 17 24 233 l2 222 -65 0 -65 0
0 40 0 40 65 0 65 0 0 209 0 209 -37 19 c-44 21 -56 59 -27 80 25 18 504 19
522 1z m1806 -1 c29 -21 17 -59 -26 -82 -28 -14 -40 -28 -44 -50 -3 -17 -4
-215 -2 -440 3 -454 4 -461 68 -483 28 -10 30 -14 30 -66 0 -30 -3 -57 -7 -59
-5 -2 -48 0 -98 4 -164 14 -287 80 -340 183 l-30 60 -5 415 -5 416 -37 17
c-44 21 -57 52 -32 79 16 18 33 19 264 19 187 0 250 -3 264 -13z m520 -3 c21
-20 20 -41 -1 -58 -10 -8 -33 -27 -52 -42 -59 -49 -61 -60 -61 -416 0 -352 -8
-424 -54 -503 -14 -23 -42 -57 -62 -75 -43 -37 -128 -80 -161 -80 -21 0 -23 5
-23 55 l0 54 41 11 c58 16 124 80 144 139 13 41 15 100 13 399 -3 337 -4 352
-24 379 -11 15 -37 39 -58 52 -40 27 -55 63 -36 86 19 23 312 22 334 -1z
m1586 -569 l0 -585 -218 0 c-236 0 -257 4 -250 51 2 16 15 30 38 41 19 10 38
26 42 35 8 22 10 858 2 900 -4 20 -17 35 -42 48 -24 13 -38 28 -40 44 -7 47
14 51 250 51 l218 0 0 -585z m420 421 c0 -175 -4 -191 -51 -184 -16 2 -33 24
-63 82 -47 91 -91 128 -176 149 l-55 14 -3 52 -3 51 175 0 176 0 0 -164z
m-8941 -152 l21 -81 -80 -291 c-44 -160 -80 -300 -80 -310 0 -27 34 -67 70
-82 34 -14 49 -52 30 -75 -19 -23 -302 -22 -325 1 -27 28 -14 56 41 88 32 18
60 43 72 65 11 20 61 187 111 371 98 359 111 403 116 398 2 -2 13 -39 24 -84z
m2719 -36 c19 -19 17 -432 -2 -448 -32 -26 -59 -8 -83 54 -24 62 -54 102 -85
112 -14 4 -18 15 -18 57 1 47 4 54 33 72 31 20 53 53 81 128 12 28 21 37 38
37 13 0 29 -5 36 -12z m6060 0 c19 -19 17 -432 -2 -448 -32 -26 -59 -8 -83 54
-24 62 -54 102 -85 112 -14 4 -18 15 -18 57 1 47 4 54 33 72 31 20 53 53 81
128 12 28 21 37 38 37 13 0 29 -5 36 -12z m-1607 -465 c51 -139 132 -241 210
-264 39 -12 39 -13 39 -62 l0 -50 -48 6 c-27 3 -74 17 -106 31 -72 32 -77 32
-114 1 -37 -31 -56 -32 -76 -3 -13 18 -16 55 -16 198 0 196 7 224 58 218 23
-3 30 -13 53 -75z m-4293 -5 c8 -8 12 -63 12 -180 l0 -168 -180 0 -180 0 0 45
c0 44 1 44 42 56 103 27 170 87 218 195 24 52 33 64 53 64 12 0 28 -5 35 -12z
m6060 0 c8 -8 12 -63 12 -180 l0 -168 -180 0 -180 0 0 45 c0 44 1 44 42 56
103 27 170 87 218 195 24 52 33 64 53 64 12 0 28 -5 35 -12z"/>
</g>
</svg>
