<?xml version="1.0" standalone="no"?>
<!DOCTYPE svg PUBLIC "-//W3C//DTD SVG 20010904//EN"
 "http://www.w3.org/TR/2001/REC-SVG-20010904/DTD/svg10.dtd">
<svg version="1.0" xmlns="http://www.w3.org/2000/svg"
 width="1152.000000pt" height="150.000000pt" viewBox="0 0 1152.000000 150.000000"
 preserveAspectRatio="xMidYMid meet">
<metadata>
Created by potrace 1.16, written by Peter Selinger 2001-2019
</metadata>
<g transform="translate(0.000000,150.000000) scale(0.100000,-0.100000)"
fill="#000000" stroke="none">
<path d="M0 750 l0 -750 5760 0 5760 0 0 750 0 750 -5760 0 -5760 0 0 -750z
m7430 566 c0 -39 -4 -47 -29 -62 -16 -10 -34 -28 -40 -41 -15 -34 -15 -888 0
-932 6 -18 24 -38 40 -47 26 -13 29 -20 29 -61 l0 -46 -51 7 c-194 26 -355
183 -416 406 -25 90 -24 318 1 410 63 230 246 403 434 409 31 1 32 0 32 -43z
m203 23 c166 -55 292 -198 344 -390 24 -90 25 -319 0 -409 -39 -145 -118 -259
-231 -332 -62 -40 -168 -78 -217 -78 -28 0 -29 2 -29 44 0 39 4 47 28 58 15 7
35 29 45 48 16 32 17 72 15 481 -3 431 -4 448 -23 469 -11 12 -30 26 -42 31
-19 7 -23 16 -23 54 0 45 0 45 35 45 20 0 64 -9 98 -21z m2087 -29 c0 -45 -3
-50 -25 -56 -14 -3 -38 -22 -55 -40 -53 -61 -33 -147 47 -197 21 -13 101 -52
178 -87 115 -54 149 -74 197 -121 36 -35 69 -80 85 -116 24 -50 28 -70 28
-153 -1 -76 -5 -107 -24 -153 -28 -70 -110 -162 -178 -200 -56 -30 -151 -57
-200 -57 -33 0 -33 0 -33 48 0 48 1 49 39 60 72 22 114 90 96 159 -12 49 -75
96 -210 156 -163 73 -245 131 -295 209 -118 181 -53 448 132 544 51 27 139 53
181 53 l37 1 0 -50z m220 18 c92 -34 97 -33 126 1 29 35 59 40 74 12 6 -12 10
-93 10 -195 0 -145 -3 -177 -16 -190 -34 -34 -77 -11 -89 46 -21 98 -122 221
-204 248 -41 13 -41 14 -41 62 l0 50 43 -7 c23 -4 67 -16 97 -27z m-9146 -4
c25 -24 19 -49 -19 -78 -19 -15 -35 -35 -35 -45 0 -10 36 -155 80 -322 l80
-304 -52 -212 -53 -213 -95 0 -95 0 -144 523 c-79 287 -149 532 -157 544 -7
12 -23 24 -34 28 -32 10 -38 55 -10 77 20 16 45 18 270 18 213 0 251 -2 264
-16z m475 -381 l105 -396 -49 -198 -49 -199 -96 0 -96 0 -102 384 -102 384 52
211 53 211 90 0 90 0 104 -397z m382 387 c33 -18 23 -48 -29 -80 -68 -42 -91
-91 -151 -320 -28 -107 -54 -206 -58 -220 -5 -20 -11 -7 -29 65 l-23 89 40
143 c21 79 39 154 39 167 0 25 -44 69 -80 81 -29 9 -38 54 -15 72 23 16 276
19 306 3z m938 -513 c68 -287 128 -532 133 -543 6 -12 25 -29 44 -37 39 -19
47 -59 15 -77 -26 -14 -496 -14 -522 0 -30 17 -24 58 11 78 41 23 44 41 24
127 l-18 75 -121 0 -122 0 10 50 10 50 98 0 c55 0 99 1 99 3 0 2 -36 162 -80
356 -73 323 -79 357 -69 397 l11 44 177 0 176 0 124 -523z m761 -6 c0 -468 2
-531 16 -545 8 -9 23 -16 32 -16 27 0 62 -29 62 -50 0 -10 -10 -26 -22 -34
-19 -14 -63 -16 -278 -16 -277 0 -295 3 -288 51 2 16 16 31 43 45 l40 20 0
479 0 479 -40 20 c-27 14 -41 29 -43 45 -7 47 13 51 255 51 l223 0 0 -529z
m351 500 c68 -26 141 -88 172 -145 31 -59 31 -202 -1 -262 -40 -77 -93 -119
-196 -154 l-50 -16 62 -14 c90 -19 162 -64 190 -120 19 -38 22 -60 22 -162 0
-75 4 -118 10 -118 6 0 24 9 39 21 64 47 101 -10 57 -86 -81 -138 -308 -169
-420 -58 -52 52 -66 110 -66 267 0 113 -3 135 -20 164 -13 21 -31 35 -50 39
-28 5 -30 8 -30 53 0 46 2 49 30 55 16 4 39 18 50 33 20 25 21 37 18 200 l-3
174 -33 29 c-18 16 -39 29 -47 29 -11 0 -15 13 -15 51 l0 52 113 -6 c79 -4
129 -12 168 -26z m899 -566 l0 -595 -223 0 c-242 0 -262 4 -255 51 2 16 16 31
43 45 l40 20 0 479 0 479 -40 20 c-27 14 -41 29 -43 45 -7 47 13 51 255 51
l223 0 0 -595z m430 427 c0 -178 -3 -192 -48 -192 -17 0 -27 9 -38 38 -52 134
-114 190 -236 216 -26 6 -28 10 -28 56 l0 50 175 0 175 0 0 -168z m1164 155
c30 -22 17 -59 -29 -83 l-40 -20 0 -479 0 -479 40 -20 c46 -24 59 -61 29 -83
-26 -19 -512 -19 -538 0 -30 22 -17 59 29 83 l40 20 0 479 0 479 -40 20 c-46
24 -59 61 -29 83 26 19 512 19 538 0z m600 0 c30 -22 17 -59 -29 -83 l-40 -20
-3 -460 c-1 -252 0 -469 3 -481 3 -12 21 -29 42 -40 44 -21 56 -59 27 -80 -25
-18 -514 -19 -532 -1 -24 24 -13 57 28 83 l40 25 0 220 0 220 -70 0 -70 0 0
45 0 45 70 0 70 0 0 210 0 210 -40 25 c-44 28 -54 66 -22 84 27 16 504 14 526
-2z m1851 -3 c26 -26 14 -57 -30 -80 l-40 -20 -3 -435 c-3 -492 -1 -508 64
-535 33 -14 34 -16 34 -69 l0 -55 -64 0 c-179 0 -346 83 -400 200 -20 43 -21
66 -26 469 l-5 425 -40 20 c-27 14 -41 29 -43 45 -7 48 11 51 284 51 220 0
255 -2 269 -16z m520 3 c27 -20 12 -57 -35 -89 -75 -52 -74 -47 -81 -468 -6
-418 -6 -422 -77 -514 -40 -54 -130 -110 -194 -121 l-38 -7 0 54 0 53 50 18
c61 22 114 66 143 121 21 40 22 53 25 393 3 333 2 355 -17 398 -14 33 -33 52
-70 76 -55 33 -68 68 -33 88 27 16 304 14 327 -2z m1635 -582 l0 -595 -223 0
c-242 0 -262 4 -255 51 2 16 16 31 43 45 l40 20 0 479 0 479 -40 20 c-27 14
-41 29 -43 45 -7 47 13 51 255 51 l223 0 0 -595z m430 427 c0 -178 -3 -192
-48 -192 -17 0 -27 9 -38 38 -52 134 -114 190 -236 216 -26 6 -28 10 -28 56
l0 50 175 0 175 0 0 -168z m-9217 -527 c-45 -159 -82 -300 -83 -313 0 -38 18
-61 70 -87 40 -20 50 -31 50 -50 0 -14 -8 -29 -19 -35 -11 -5 -82 -10 -158
-10 -111 0 -143 3 -161 16 -36 25 -25 55 32 84 28 14 59 40 72 60 14 22 60
168 119 385 53 193 101 366 107 385 l12 35 21 -90 20 -90 -82 -290z m2857 336
c15 -29 13 -434 -2 -449 -7 -7 -22 -12 -35 -12 -23 0 -32 14 -63 98 -13 35
-62 82 -86 82 -10 0 -14 14 -14 53 0 47 3 55 26 68 39 20 72 65 85 112 6 23
16 48 21 55 16 19 56 14 68 -7z m6200 0 c15 -29 13 -434 -2 -449 -7 -7 -22
-12 -35 -12 -23 0 -32 14 -63 98 -13 35 -62 82 -86 82 -10 0 -14 14 -14 53 0
47 3 55 26 68 39 20 72 65 85 112 6 23 16 48 21 55 16 19 56 14 68 -7z m-1673
-403 c5 -7 21 -46 36 -85 47 -131 140 -241 218 -258 27 -6 29 -9 29 -56 0 -48
-1 -49 -31 -49 -17 0 -64 14 -106 30 -91 36 -103 37 -133 5 -27 -29 -52 -32
-74 -9 -24 24 -24 389 1 416 19 21 46 24 60 6z m-4369 -70 c8 -8 12 -64 12
-185 l0 -173 -180 0 -180 0 0 45 c0 28 5 47 13 49 6 2 31 9 54 15 75 20 137
80 184 176 33 69 45 85 63 85 12 0 27 -5 34 -12z m6200 0 c8 -8 12 -64 12
-185 l0 -173 -180 0 -180 0 0 45 c0 28 5 47 13 49 6 2 31 9 54 15 75 20 137
80 184 176 33 69 45 85 63 85 12 0 27 -5 34 -12z"/>
</g>
</svg>
